<?xml version="1.0" encoding="UTF-8"?>
<svg xmlns="http://www.w3.org/2000/svg" viewBox="0 0 800 600" fill="none">
  <path d="M400 550C512.173 550 603 459.173 603 347C603 234.827 512.173 144 400 144C287.827 144 197 234.827 197 347C197 459.173 287.827 550 400 550Z" fill="#F3F4FF" />
  <path d="M400 200L520 240V360C520 400 470 440 400 460C330 440 280 400 280 360V240L400 200Z" fill="white" stroke="#59159D" stroke-width="6" />
  <path d="M400 260L450 280V340C450 360 430 380 400 390C370 380 350 360 350 340V280L400 260Z" fill="#7E3AD6" />
  <path d="M395 330L410 315L425 330L410 345L395 330Z" fill="white" />
  <path d="M375 310L390 295L405 310L390 325L375 310Z" fill="white" />
  <path d="M415 310L430 295L445 310L430 325L415 310Z" fill="white" />
  <path d="M395 290L410 275L425 290L410 305L395 290Z" fill="white" />
  <circle cx="300" cy="200" r="30" fill="#59159D" />
  <circle cx="500" cy="200" r="30" fill="#7E3AD6" />
  <path d="M300 170V230" stroke="white" stroke-width="4" stroke-linecap="round" />
  <path d="M270 200H330" stroke="white" stroke-width="4" stroke-linecap="round" />
  <path d="M485 185L515 215" stroke="white" stroke-width="4" stroke-linecap="round" />
  <path d="M515 185L485 215" stroke="white" stroke-width="4" stroke-linecap="round" />
  <path d="M300 450C300 450 350 480 400 480C450 480 500 450 500 450" stroke="#59159D" stroke-width="6" stroke-linecap="round" />
</svg>
